<svg id="Group_1" data-name="Group 1" xmlns="http://www.w3.org/2000/svg" width="127.84" height="29.242" viewBox="0 0 127.84 29.242">
  <path id="Path_1" data-name="Path 1" d="M191.015,30.843l.485-.6,9.3-11.034a.679.679,0,0,1,.241-.182,1.092,1.092,0,0,1,.392-.072H205.3c.113.016.156.043.18.1a.193.193,0,0,1-.015.191L195.015,31.556a9.249,9.249,0,0,0-.559.76,1.781,1.781,0,0,0,.243,2.078c.022.031.515.667.515.667l10.232,12.283a.2.2,0,0,1,.044.216.2.2,0,0,1-.177.11h-3.836a1.152,1.152,0,0,1-.458-.11,1.2,1.2,0,0,1-.287-.232l-9.281-11.336-.469-.627a3.418,3.418,0,0,1,.033-4.522" transform="translate(-134.143 -18.952)" fill="#003568"/>
  <path id="Path_2" data-name="Path 2" d="M154.13,30.843l.484-.6,9.3-11.033a.675.675,0,0,1,.24-.183,1.068,1.068,0,0,1,.392-.071h3.863c.113.015.156.043.18.1a.191.191,0,0,1-.015.191L158.13,31.555a9.336,9.336,0,0,0-.559.76,1.783,1.783,0,0,0,.244,2.077c.022.032.513.669.513.669l10.235,12.283a.2.2,0,0,1,.042.215.193.193,0,0,1-.177.112h-3.836a1.141,1.141,0,0,1-.458-.112,1.164,1.164,0,0,1-.287-.231l-9.281-11.336-.469-.628a3.416,3.416,0,0,1,.033-4.521" transform="translate(-109.367 -18.952)" fill="#003568"/>
  <path id="Path_3" data-name="Path 3" d="M23.454,19.084a.328.328,0,0,1,.078.221v24.17s-.02.2.064.279a.454.454,0,0,0,.282.057l11.214.005a.47.47,0,0,1,.321.091.375.375,0,0,1,.107.277V47.36a.48.48,0,0,1-.1.239.449.449,0,0,1-.271.107l-15.273.016a.442.442,0,0,1-.221-.094.4.4,0,0,1-.1-.223V19.3a.365.365,0,0,1,.087-.218A.3.3,0,0,1,19.894,19h3.3s.185,0,.255.083" transform="translate(-19.565 -18.981)" fill="#003568"/>
  <path id="Path_4" data-name="Path 4" d="M94.4,19a.448.448,0,0,1,.272-.05h3.316a.355.355,0,0,1,.219.072.325.325,0,0,1,.07.209V37.492a11.919,11.919,0,0,1-.731,4.2A9.609,9.609,0,0,1,95.387,45.1a9.941,9.941,0,0,1-3.515,2.264,14.772,14.772,0,0,1-9.7,0A9.928,9.928,0,0,1,78.655,45.1,9.546,9.546,0,0,1,76.5,41.7a11.89,11.89,0,0,1-.732-4.2V19.255a.427.427,0,0,1,.069-.224c.065-.088.246-.085.246-.085h3.344a.413.413,0,0,1,.233.075.36.36,0,0,1,.075.2V37.664a7.542,7.542,0,0,0,1.834,5.262,6.982,6.982,0,0,0,5.455,2.027,6.984,6.984,0,0,0,5.455-2.027,7.547,7.547,0,0,0,1.833-5.262V19.231A.316.316,0,0,1,94.4,19" transform="translate(-57.315 -18.944)" fill="#003568"/>
  <path id="Path_5" data-name="Path 5" d="M273.288,47.563a.368.368,0,0,1-.257.111h-3.21a.947.947,0,0,1-.324-.1.819.819,0,0,1-.236-.263l-2.391-6.307-.033-.09a.265.265,0,0,0-.095-.12.436.436,0,0,0-.243-.066H253.7l-.114,0a.388.388,0,0,0-.218.045.491.491,0,0,0-.1.165l-.037.111c-.19.511-1.842,4.94-2.315,6.2a.619.619,0,0,1-.2.315.892.892,0,0,1-.407.1h-3.2a.289.289,0,0,1-.26-.114.325.325,0,0,1,0-.244l11.194-28.137a.419.419,0,0,1,.156-.163.516.516,0,0,1,.221-.065h3.3a.446.446,0,0,1,.239.074.4.4,0,0,1,.144.154l11.183,28.1s.061.184-.006.281M254.643,37.471a.144.144,0,0,0,.1.069H265.1l.216,0c.118,0,.159-.017.194-.058a.2.2,0,0,0,0-.2l-.091-.248-5.181-14.043-.046-.114c-.014-.043-.063-.113-.108-.113a.136.136,0,0,0-.108.091l-.06.179-5.233,14.191-.027.074a.17.17,0,0,0-.008.173" transform="translate(-172.219 -18.949)" fill="#003568"/>
  <path id="Path_6" data-name="Path 6" d="M356.78,47.608a.93.93,0,0,1-.232-.2l-15.46-21.668-.211-.3a.136.136,0,0,0-.173-.022c-.056.036-.048.094-.059.164V47.244a.565.565,0,0,1-.109.321.358.358,0,0,1-.246.106h-3.022a.491.491,0,0,1-.311-.1.425.425,0,0,1-.107-.286V19.323a.383.383,0,0,1,.109-.281.641.641,0,0,1,.412-.093h2.641a1.969,1.969,0,0,1,.6.093.888.888,0,0,1,.263.263l15.407,21.571.192.239c.062.061.1.075.174.042s.078-.074.081-.146V19.274a.321.321,0,0,1,.077-.254.408.408,0,0,1,.276-.072h3.16a.287.287,0,0,1,.212.075.232.232,0,0,1,.069.169v28.2a.316.316,0,0,1-.092.227.43.43,0,0,1-.224.053h-3.155a.7.7,0,0,1-.273-.062" transform="translate(-232.685 -18.945)" fill="#003568"/>
</svg>
